<mxfile host="drawio-plugin" modified="2022-06-26T18:22:10.930Z" agent="5.0 (Windows NT 6.2; Win64; x64) AppleWebKit/537.36 (KHTML, like Gecko) Chrome/97.0.4692.45 Safari/537.36" etag="pWwSLTOGpmltmG7K5Oe6" version="15.5.4" type="embed"><diagram id="C5RBs43oDa-KdzZeNtuy" name="Page-1"><mxGraphModel dx="1696" dy="1643" grid="1" gridSize="10" guides="1" tooltips="1" connect="1" arrows="1" fold="1" page="1" pageScale="1" pageWidth="827" pageHeight="1169" math="0" shadow="0"><root><mxCell id="WIyWlLk6GJQsqaUBKTNV-0"/><mxCell id="WIyWlLk6GJQsqaUBKTNV-1" parent="WIyWlLk6GJQsqaUBKTNV-0"/><mxCell id="zkfFHV4jXpPFQw0GAbJ--0" value="User" style="swimlane;fontStyle=1;align=center;verticalAlign=top;childLayout=stackLayout;horizontal=1;startSize=26;horizontalStack=0;resizeParent=1;resizeLast=0;collapsible=1;marginBottom=0;rounded=0;shadow=0;strokeWidth=1;" parent="WIyWlLk6GJQsqaUBKTNV-1" vertex="1"><mxGeometry x="-800" y="260" width="160" height="294" as="geometry"><mxRectangle x="40" y="60" width="160" height="26" as="alternateBounds"/></mxGeometry></mxCell><mxCell id="zkfFHV4jXpPFQw0GAbJ--1" value="+ Id : guid" style="text;align=left;verticalAlign=top;spacingLeft=4;spacingRight=4;overflow=hidden;rotatable=0;points=[[0,0.5],[1,0.5]];portConstraint=eastwest;" parent="zkfFHV4jXpPFQw0GAbJ--0" vertex="1"><mxGeometry y="26" width="160" height="26" as="geometry"/></mxCell><mxCell id="y_DVmvTGEF5yLgAuHi2X-27" value="+ Active : bool" style="text;align=left;verticalAlign=top;spacingLeft=4;spacingRight=4;overflow=hidden;rotatable=0;points=[[0,0.5],[1,0.5]];portConstraint=eastwest;" parent="zkfFHV4jXpPFQw0GAbJ--0" vertex="1"><mxGeometry y="52" width="160" height="26" as="geometry"/></mxCell><mxCell id="0" value="+ CreatedAt: DateTime" style="text;align=left;verticalAlign=top;spacingLeft=4;spacingRight=4;overflow=hidden;rotatable=0;points=[[0,0.5],[1,0.5]];portConstraint=eastwest;" parent="zkfFHV4jXpPFQw0GAbJ--0" vertex="1"><mxGeometry y="78" width="160" height="26" as="geometry"/></mxCell><mxCell id="GeA1z8HxsoWR9ZS5_uRB-1" value="+ LastUpdatedAt: DateTime" style="text;align=left;verticalAlign=top;spacingLeft=4;spacingRight=4;overflow=hidden;rotatable=0;points=[[0,0.5],[1,0.5]];portConstraint=eastwest;" parent="zkfFHV4jXpPFQw0GAbJ--0" vertex="1"><mxGeometry y="104" width="160" height="26" as="geometry"/></mxCell><mxCell id="y_DVmvTGEF5yLgAuHi2X-3" value="+ GoogleId : ulong" style="text;align=left;verticalAlign=top;spacingLeft=4;spacingRight=4;overflow=hidden;rotatable=0;points=[[0,0.5],[1,0.5]];portConstraint=eastwest;" parent="zkfFHV4jXpPFQw0GAbJ--0" vertex="1"><mxGeometry y="130" width="160" height="26" as="geometry"/></mxCell><mxCell id="zkfFHV4jXpPFQw0GAbJ--2" value="+ Name : string" style="text;align=left;verticalAlign=top;spacingLeft=4;spacingRight=4;overflow=hidden;rotatable=0;points=[[0,0.5],[1,0.5]];portConstraint=eastwest;rounded=0;shadow=0;html=0;" parent="zkfFHV4jXpPFQw0GAbJ--0" vertex="1"><mxGeometry y="156" width="160" height="26" as="geometry"/></mxCell><mxCell id="y_DVmvTGEF5yLgAuHi2X-2" value="+ Email : string" style="text;align=left;verticalAlign=top;spacingLeft=4;spacingRight=4;overflow=hidden;rotatable=0;points=[[0,0.5],[1,0.5]];portConstraint=eastwest;" parent="zkfFHV4jXpPFQw0GAbJ--0" vertex="1"><mxGeometry y="182" width="160" height="26" as="geometry"/></mxCell><mxCell id="y_DVmvTGEF5yLgAuHi2X-24" value="+ EmailConfirmed : bool" style="text;align=left;verticalAlign=top;spacingLeft=4;spacingRight=4;overflow=hidden;rotatable=0;points=[[0,0.5],[1,0.5]];portConstraint=eastwest;" parent="zkfFHV4jXpPFQw0GAbJ--0" vertex="1"><mxGeometry y="208" width="160" height="26" as="geometry"/></mxCell><mxCell id="y_DVmvTGEF5yLgAuHi2X-4" value="+ Language : enum" style="text;align=left;verticalAlign=top;spacingLeft=4;spacingRight=4;overflow=hidden;rotatable=0;points=[[0,0.5],[1,0.5]];portConstraint=eastwest;" parent="zkfFHV4jXpPFQw0GAbJ--0" vertex="1"><mxGeometry y="234" width="160" height="26" as="geometry"/></mxCell><mxCell id="jek3hiavymi3JXJsPZwq-0" value="+ Theme: enum" style="text;align=left;verticalAlign=top;spacingLeft=4;spacingRight=4;overflow=hidden;rotatable=0;points=[[0,0.5],[1,0.5]];portConstraint=eastwest;" parent="zkfFHV4jXpPFQw0GAbJ--0" vertex="1"><mxGeometry y="260" width="160" height="26" as="geometry"/></mxCell><mxCell id="zkfFHV4jXpPFQw0GAbJ--4" value="" style="line;html=1;strokeWidth=1;align=left;verticalAlign=middle;spacingTop=-1;spacingLeft=3;spacingRight=3;rotatable=0;labelPosition=right;points=[];portConstraint=eastwest;" parent="zkfFHV4jXpPFQw0GAbJ--0" vertex="1"><mxGeometry y="286" width="160" height="8" as="geometry"/></mxCell><mxCell id="zkfFHV4jXpPFQw0GAbJ--17" value="Alert" style="swimlane;fontStyle=1;align=center;verticalAlign=top;childLayout=stackLayout;horizontal=1;startSize=26;horizontalStack=0;resizeParent=1;resizeLast=0;collapsible=1;marginBottom=0;rounded=0;shadow=0;strokeWidth=1;" parent="WIyWlLk6GJQsqaUBKTNV-1" vertex="1"><mxGeometry x="-482" y="233" width="160" height="294" as="geometry"><mxRectangle x="550" y="140" width="160" height="26" as="alternateBounds"/></mxGeometry></mxCell><mxCell id="zkfFHV4jXpPFQw0GAbJ--18" value="+ Id : int" style="text;align=left;verticalAlign=top;spacingLeft=4;spacingRight=4;overflow=hidden;rotatable=0;points=[[0,0.5],[1,0.5]];portConstraint=eastwest;" parent="zkfFHV4jXpPFQw0GAbJ--17" vertex="1"><mxGeometry y="26" width="160" height="26" as="geometry"/></mxCell><mxCell id="68" value="+ UserId : guid" style="text;align=left;verticalAlign=top;spacingLeft=4;spacingRight=4;overflow=hidden;rotatable=0;points=[[0,0.5],[1,0.5]];portConstraint=eastwest;" vertex="1" parent="zkfFHV4jXpPFQw0GAbJ--17"><mxGeometry y="52" width="160" height="26" as="geometry"/></mxCell><mxCell id="y_DVmvTGEF5yLgAuHi2X-29" value="+ Name : string" style="text;align=left;verticalAlign=top;spacingLeft=4;spacingRight=4;overflow=hidden;rotatable=0;points=[[0,0.5],[1,0.5]];portConstraint=eastwest;" parent="zkfFHV4jXpPFQw0GAbJ--17" vertex="1"><mxGeometry y="78" width="160" height="26" as="geometry"/></mxCell><mxCell id="y_DVmvTGEF5yLgAuHi2X-21" value="+ Frequency : enum" style="text;align=left;verticalAlign=top;spacingLeft=4;spacingRight=4;overflow=hidden;rotatable=0;points=[[0,0.5],[1,0.5]];portConstraint=eastwest;rounded=0;shadow=0;html=0;" parent="zkfFHV4jXpPFQw0GAbJ--17" vertex="1"><mxGeometry y="104" width="160" height="26" as="geometry"/></mxCell><mxCell id="4" value="+ LastVerification: Datetime" style="text;align=left;verticalAlign=top;spacingLeft=4;spacingRight=4;overflow=hidden;rotatable=0;points=[[0,0.5],[1,0.5]];portConstraint=eastwest;rounded=0;shadow=0;html=0;" parent="zkfFHV4jXpPFQw0GAbJ--17" vertex="1"><mxGeometry y="130" width="160" height="26" as="geometry"/></mxCell><mxCell id="zkfFHV4jXpPFQw0GAbJ--19" value="+ Active : bool" style="text;align=left;verticalAlign=top;spacingLeft=4;spacingRight=4;overflow=hidden;rotatable=0;points=[[0,0.5],[1,0.5]];portConstraint=eastwest;rounded=0;shadow=0;html=0;" parent="zkfFHV4jXpPFQw0GAbJ--17" vertex="1"><mxGeometry y="156" width="160" height="26" as="geometry"/></mxCell><mxCell id="2" value="+ CreatedAt: DateTime" style="text;align=left;verticalAlign=top;spacingLeft=4;spacingRight=4;overflow=hidden;rotatable=0;points=[[0,0.5],[1,0.5]];portConstraint=eastwest;" parent="zkfFHV4jXpPFQw0GAbJ--17" vertex="1"><mxGeometry y="182" width="160" height="26" as="geometry"/></mxCell><mxCell id="3" value="+ LastUpdatedAt: DateTime" style="text;align=left;verticalAlign=top;spacingLeft=4;spacingRight=4;overflow=hidden;rotatable=0;points=[[0,0.5],[1,0.5]];portConstraint=eastwest;" parent="zkfFHV4jXpPFQw0GAbJ--17" vertex="1"><mxGeometry y="208" width="160" height="26" as="geometry"/></mxCell><mxCell id="zkfFHV4jXpPFQw0GAbJ--23" value="" style="line;html=1;strokeWidth=1;align=left;verticalAlign=middle;spacingTop=-1;spacingLeft=3;spacingRight=3;rotatable=0;labelPosition=right;points=[];portConstraint=eastwest;" parent="zkfFHV4jXpPFQw0GAbJ--17" vertex="1"><mxGeometry y="234" width="160" height="8" as="geometry"/></mxCell><mxCell id="y_DVmvTGEF5yLgAuHi2X-30" value="AddReceiver()" style="text;align=left;verticalAlign=top;spacingLeft=4;spacingRight=4;overflow=hidden;rotatable=0;points=[[0,0.5],[1,0.5]];portConstraint=eastwest;rounded=0;shadow=0;html=0;" parent="zkfFHV4jXpPFQw0GAbJ--17" vertex="1"><mxGeometry y="242" width="160" height="26" as="geometry"/></mxCell><mxCell id="y_DVmvTGEF5yLgAuHi2X-31" value="RemoveReceiver()" style="text;align=left;verticalAlign=top;spacingLeft=4;spacingRight=4;overflow=hidden;rotatable=0;points=[[0,0.5],[1,0.5]];portConstraint=eastwest;rounded=0;shadow=0;html=0;" parent="zkfFHV4jXpPFQw0GAbJ--17" vertex="1"><mxGeometry y="268" width="160" height="26" as="geometry"/></mxCell><mxCell id="y_DVmvTGEF5yLgAuHi2X-6" value="" style="resizable=0;align=right;verticalAlign=bottom;labelBackgroundColor=none;fontSize=12;" parent="WIyWlLk6GJQsqaUBKTNV-1" connectable="0" vertex="1"><mxGeometry x="-449" y="410" as="geometry"><mxPoint x="-71" y="35" as="offset"/></mxGeometry></mxCell><mxCell id="y_DVmvTGEF5yLgAuHi2X-14" value="Receiver" style="swimlane;fontStyle=1;align=center;verticalAlign=top;childLayout=stackLayout;horizontal=1;startSize=26;horizontalStack=0;resizeParent=1;resizeParentMax=0;resizeLast=0;collapsible=1;marginBottom=0;" parent="WIyWlLk6GJQsqaUBKTNV-1" vertex="1"><mxGeometry x="-184" y="394" width="160" height="164" as="geometry"/></mxCell><mxCell id="y_DVmvTGEF5yLgAuHi2X-15" value="+ Id : int" style="text;strokeColor=none;fillColor=none;align=left;verticalAlign=top;spacingLeft=4;spacingRight=4;overflow=hidden;rotatable=0;points=[[0,0.5],[1,0.5]];portConstraint=eastwest;" parent="y_DVmvTGEF5yLgAuHi2X-14" vertex="1"><mxGeometry y="26" width="160" height="26" as="geometry"/></mxCell><mxCell id="y_DVmvTGEF5yLgAuHi2X-22" value="+ Name : string" style="text;strokeColor=none;fillColor=none;align=left;verticalAlign=top;spacingLeft=4;spacingRight=4;overflow=hidden;rotatable=0;points=[[0,0.5],[1,0.5]];portConstraint=eastwest;" parent="y_DVmvTGEF5yLgAuHi2X-14" vertex="1"><mxGeometry y="52" width="160" height="26" as="geometry"/></mxCell><mxCell id="y_DVmvTGEF5yLgAuHi2X-28" value="+ EmailConfirmed : bool" style="text;strokeColor=none;fillColor=none;align=left;verticalAlign=top;spacingLeft=4;spacingRight=4;overflow=hidden;rotatable=0;points=[[0,0.5],[1,0.5]];portConstraint=eastwest;" parent="y_DVmvTGEF5yLgAuHi2X-14" vertex="1"><mxGeometry y="78" width="160" height="26" as="geometry"/></mxCell><mxCell id="y_DVmvTGEF5yLgAuHi2X-23" value="+ Email : string" style="text;strokeColor=none;fillColor=none;align=left;verticalAlign=top;spacingLeft=4;spacingRight=4;overflow=hidden;rotatable=0;points=[[0,0.5],[1,0.5]];portConstraint=eastwest;" parent="y_DVmvTGEF5yLgAuHi2X-14" vertex="1"><mxGeometry y="104" width="160" height="26" as="geometry"/></mxCell><mxCell id="20" value="+ TelegramChatId : string" style="text;strokeColor=none;fillColor=none;align=left;verticalAlign=top;spacingLeft=4;spacingRight=4;overflow=hidden;rotatable=0;points=[[0,0.5],[1,0.5]];portConstraint=eastwest;" parent="y_DVmvTGEF5yLgAuHi2X-14" vertex="1"><mxGeometry y="130" width="160" height="26" as="geometry"/></mxCell><mxCell id="y_DVmvTGEF5yLgAuHi2X-16" value="" style="line;strokeWidth=1;fillColor=none;align=left;verticalAlign=middle;spacingTop=-1;spacingLeft=3;spacingRight=3;rotatable=0;labelPosition=right;points=[];portConstraint=eastwest;" parent="y_DVmvTGEF5yLgAuHi2X-14" vertex="1"><mxGeometry y="156" width="160" height="8" as="geometry"/></mxCell><mxCell id="y_DVmvTGEF5yLgAuHi2X-35" value="WatchMode" style="swimlane;fontStyle=3;align=center;verticalAlign=top;childLayout=stackLayout;horizontal=1;startSize=26;horizontalStack=0;resizeParent=1;resizeParentMax=0;resizeLast=0;collapsible=1;marginBottom=0;" parent="WIyWlLk6GJQsqaUBKTNV-1" vertex="1"><mxGeometry x="-482" y="590" width="160" height="190" as="geometry"/></mxCell><mxCell id="y_DVmvTGEF5yLgAuHi2X-36" value="+ Id: int" style="text;strokeColor=none;fillColor=none;align=left;verticalAlign=top;spacingLeft=4;spacingRight=4;overflow=hidden;rotatable=0;points=[[0,0.5],[1,0.5]];portConstraint=eastwest;" parent="y_DVmvTGEF5yLgAuHi2X-35" vertex="1"><mxGeometry y="26" width="160" height="26" as="geometry"/></mxCell><mxCell id="69" value="+ AlertId: int" style="text;strokeColor=none;fillColor=none;align=left;verticalAlign=top;spacingLeft=4;spacingRight=4;overflow=hidden;rotatable=0;points=[[0,0.5],[1,0.5]];portConstraint=eastwest;" vertex="1" parent="y_DVmvTGEF5yLgAuHi2X-35"><mxGeometry y="52" width="160" height="26" as="geometry"/></mxCell><mxCell id="65" value="+ Active : bool" style="text;align=left;verticalAlign=top;spacingLeft=4;spacingRight=4;overflow=hidden;rotatable=0;points=[[0,0.5],[1,0.5]];portConstraint=eastwest;" parent="y_DVmvTGEF5yLgAuHi2X-35" vertex="1"><mxGeometry y="78" width="160" height="26" as="geometry"/></mxCell><mxCell id="66" value="+ CreatedAt: DateTime" style="text;align=left;verticalAlign=top;spacingLeft=4;spacingRight=4;overflow=hidden;rotatable=0;points=[[0,0.5],[1,0.5]];portConstraint=eastwest;" parent="y_DVmvTGEF5yLgAuHi2X-35" vertex="1"><mxGeometry y="104" width="160" height="26" as="geometry"/></mxCell><mxCell id="67" value="+ LastUpdatedAt: DateTime" style="text;align=left;verticalAlign=top;spacingLeft=4;spacingRight=4;overflow=hidden;rotatable=0;points=[[0,0.5],[1,0.5]];portConstraint=eastwest;" parent="y_DVmvTGEF5yLgAuHi2X-35" vertex="1"><mxGeometry y="130" width="160" height="26" as="geometry"/></mxCell><mxCell id="IL8PNfp2ytm6pg072xDF-20" value="+ FirstWacthDone : bool" style="text;strokeColor=none;fillColor=none;align=left;verticalAlign=top;spacingLeft=4;spacingRight=4;overflow=hidden;rotatable=0;points=[[0,0.5],[1,0.5]];portConstraint=eastwest;" parent="y_DVmvTGEF5yLgAuHi2X-35" vertex="1"><mxGeometry y="156" width="160" height="26" as="geometry"/></mxCell><mxCell id="y_DVmvTGEF5yLgAuHi2X-37" value="" style="line;strokeWidth=1;fillColor=none;align=left;verticalAlign=middle;spacingTop=-1;spacingLeft=3;spacingRight=3;rotatable=0;labelPosition=right;points=[];portConstraint=eastwest;" parent="y_DVmvTGEF5yLgAuHi2X-35" vertex="1"><mxGeometry y="182" width="160" height="8" as="geometry"/></mxCell><mxCell id="y_DVmvTGEF5yLgAuHi2X-39" value="has" style="endArrow=open;html=1;endSize=12;startArrow=diamondThin;startSize=14;startFill=1;edgeStyle=orthogonalEdgeStyle;rounded=0;entryX=0.5;entryY=0;entryDx=0;entryDy=0;" parent="WIyWlLk6GJQsqaUBKTNV-1" source="zkfFHV4jXpPFQw0GAbJ--17" target="y_DVmvTGEF5yLgAuHi2X-35" edge="1"><mxGeometry x="-0.0294" y="12" relative="1" as="geometry"><mxPoint x="-298" y="538" as="sourcePoint"/><mxPoint x="-322" y="578" as="targetPoint"/><mxPoint as="offset"/></mxGeometry></mxCell><mxCell id="y_DVmvTGEF5yLgAuHi2X-40" value="1" style="edgeLabel;resizable=0;html=1;align=left;verticalAlign=top;" parent="y_DVmvTGEF5yLgAuHi2X-39" connectable="0" vertex="1"><mxGeometry x="-1" relative="1" as="geometry"><mxPoint x="-17" y="4" as="offset"/></mxGeometry></mxCell><mxCell id="y_DVmvTGEF5yLgAuHi2X-41" value="1" style="edgeLabel;resizable=0;html=1;align=right;verticalAlign=top;" parent="y_DVmvTGEF5yLgAuHi2X-39" connectable="0" vertex="1"><mxGeometry x="1" relative="1" as="geometry"><mxPoint x="-9" y="-28" as="offset"/></mxGeometry></mxCell><mxCell id="IL8PNfp2ytm6pg072xDF-1" value="AnyChangesWatch" style="swimlane;fontStyle=1;align=center;verticalAlign=top;childLayout=stackLayout;horizontal=1;startSize=26;horizontalStack=0;resizeParent=1;resizeParentMax=0;resizeLast=0;collapsible=1;marginBottom=0;" parent="WIyWlLk6GJQsqaUBKTNV-1" vertex="1"><mxGeometry x="-706" y="889" width="160" height="60" as="geometry"/></mxCell><mxCell id="IL8PNfp2ytm6pg072xDF-41" value="+ HtmlText: string" style="text;strokeColor=none;fillColor=none;align=left;verticalAlign=top;spacingLeft=4;spacingRight=4;overflow=hidden;rotatable=0;points=[[0,0.5],[1,0.5]];portConstraint=eastwest;" parent="IL8PNfp2ytm6pg072xDF-1" vertex="1"><mxGeometry y="26" width="160" height="26" as="geometry"/></mxCell><mxCell id="IL8PNfp2ytm6pg072xDF-3" value="" style="line;strokeWidth=1;fillColor=none;align=left;verticalAlign=middle;spacingTop=-1;spacingLeft=3;spacingRight=3;rotatable=0;labelPosition=right;points=[];portConstraint=eastwest;" parent="IL8PNfp2ytm6pg072xDF-1" vertex="1"><mxGeometry y="52" width="160" height="8" as="geometry"/></mxCell><mxCell id="IL8PNfp2ytm6pg072xDF-5" value="TermWatch" style="swimlane;fontStyle=1;align=center;verticalAlign=top;childLayout=stackLayout;horizontal=1;startSize=26;horizontalStack=0;resizeParent=1;resizeParentMax=0;resizeLast=0;collapsible=1;marginBottom=0;" parent="WIyWlLk6GJQsqaUBKTNV-1" vertex="1"><mxGeometry x="-482" y="889" width="160" height="60" as="geometry"/></mxCell><mxCell id="IL8PNfp2ytm6pg072xDF-6" value="+ Term : string" style="text;strokeColor=none;fillColor=none;align=left;verticalAlign=top;spacingLeft=4;spacingRight=4;overflow=hidden;rotatable=0;points=[[0,0.5],[1,0.5]];portConstraint=eastwest;" parent="IL8PNfp2ytm6pg072xDF-5" vertex="1"><mxGeometry y="26" width="160" height="26" as="geometry"/></mxCell><mxCell id="IL8PNfp2ytm6pg072xDF-7" value="" style="line;strokeWidth=1;fillColor=none;align=left;verticalAlign=middle;spacingTop=-1;spacingLeft=3;spacingRight=3;rotatable=0;labelPosition=right;points=[];portConstraint=eastwest;" parent="IL8PNfp2ytm6pg072xDF-5" vertex="1"><mxGeometry y="52" width="160" height="8" as="geometry"/></mxCell><mxCell id="IL8PNfp2ytm6pg072xDF-9" value="ElementWatch" style="swimlane;fontStyle=1;align=center;verticalAlign=top;childLayout=stackLayout;horizontal=1;startSize=26;horizontalStack=0;resizeParent=1;resizeParentMax=0;resizeLast=0;collapsible=1;marginBottom=0;" parent="WIyWlLk6GJQsqaUBKTNV-1" vertex="1"><mxGeometry x="-275" y="889" width="160" height="60" as="geometry"/></mxCell><mxCell id="erF2GCkGY189fPx6bUt2-32" value="+ InnerValue: string" style="text;strokeColor=none;fillColor=none;align=left;verticalAlign=top;spacingLeft=4;spacingRight=4;overflow=hidden;rotatable=0;points=[[0,0.5],[1,0.5]];portConstraint=eastwest;" parent="IL8PNfp2ytm6pg072xDF-9" vertex="1"><mxGeometry y="26" width="160" height="26" as="geometry"/></mxCell><mxCell id="IL8PNfp2ytm6pg072xDF-11" value="" style="line;strokeWidth=1;fillColor=none;align=left;verticalAlign=middle;spacingTop=-1;spacingLeft=3;spacingRight=3;rotatable=0;labelPosition=right;points=[];portConstraint=eastwest;" parent="IL8PNfp2ytm6pg072xDF-9" vertex="1"><mxGeometry y="52" width="160" height="8" as="geometry"/></mxCell><mxCell id="IL8PNfp2ytm6pg072xDF-13" value="" style="endArrow=block;endSize=16;endFill=0;html=1;rounded=0;entryX=0.5;entryY=1;entryDx=0;entryDy=0;exitX=0.5;exitY=0;exitDx=0;exitDy=0;" parent="WIyWlLk6GJQsqaUBKTNV-1" source="IL8PNfp2ytm6pg072xDF-1" edge="1"><mxGeometry width="160" relative="1" as="geometry"><mxPoint x="-626" y="873" as="sourcePoint"/><mxPoint x="-402" y="782" as="targetPoint"/><Array as="points"><mxPoint x="-626" y="832"/><mxPoint x="-402" y="832"/></Array></mxGeometry></mxCell><mxCell id="IL8PNfp2ytm6pg072xDF-14" value="" style="endArrow=block;endSize=16;endFill=0;html=1;rounded=0;entryX=0.5;entryY=1;entryDx=0;entryDy=0;exitX=0.5;exitY=0;exitDx=0;exitDy=0;" parent="WIyWlLk6GJQsqaUBKTNV-1" source="IL8PNfp2ytm6pg072xDF-5" edge="1"><mxGeometry width="160" relative="1" as="geometry"><mxPoint x="-402" y="873" as="sourcePoint"/><mxPoint x="-402" y="782" as="targetPoint"/><Array as="points"><mxPoint x="-402" y="840"/></Array></mxGeometry></mxCell><mxCell id="IL8PNfp2ytm6pg072xDF-15" value="" style="endArrow=block;endSize=16;endFill=0;html=1;rounded=0;exitX=0.5;exitY=0;exitDx=0;exitDy=0;entryX=0.5;entryY=1;entryDx=0;entryDy=0;" parent="WIyWlLk6GJQsqaUBKTNV-1" edge="1"><mxGeometry width="160" relative="1" as="geometry"><mxPoint x="-195" y="888" as="sourcePoint"/><mxPoint x="-402" y="781" as="targetPoint"/><Array as="points"><mxPoint x="-195" y="831"/><mxPoint x="-402" y="831"/></Array></mxGeometry></mxCell><mxCell id="IL8PNfp2ytm6pg072xDF-25" value="Occurrence" style="swimlane;fontStyle=1;align=center;verticalAlign=top;childLayout=stackLayout;horizontal=1;startSize=26;horizontalStack=0;resizeParent=1;resizeParentMax=0;resizeLast=0;collapsible=1;marginBottom=0;" parent="WIyWlLk6GJQsqaUBKTNV-1" vertex="1"><mxGeometry x="-482" y="1086" width="160" height="86" as="geometry"/></mxCell><mxCell id="IL8PNfp2ytm6pg072xDF-26" value="+ Id: int" style="text;strokeColor=none;fillColor=none;align=left;verticalAlign=top;spacingLeft=4;spacingRight=4;overflow=hidden;rotatable=0;points=[[0,0.5],[1,0.5]];portConstraint=eastwest;" parent="IL8PNfp2ytm6pg072xDF-25" vertex="1"><mxGeometry y="26" width="160" height="26" as="geometry"/></mxCell><mxCell id="erF2GCkGY189fPx6bUt2-36" value="+ Context: string" style="text;strokeColor=none;fillColor=none;align=left;verticalAlign=top;spacingLeft=4;spacingRight=4;overflow=hidden;rotatable=0;points=[[0,0.5],[1,0.5]];portConstraint=eastwest;" parent="IL8PNfp2ytm6pg072xDF-25" vertex="1"><mxGeometry y="52" width="160" height="26" as="geometry"/></mxCell><mxCell id="IL8PNfp2ytm6pg072xDF-27" value="" style="line;strokeWidth=1;fillColor=none;align=left;verticalAlign=middle;spacingTop=-1;spacingLeft=3;spacingRight=3;rotatable=0;labelPosition=right;points=[];portConstraint=eastwest;" parent="IL8PNfp2ytm6pg072xDF-25" vertex="1"><mxGeometry y="78" width="160" height="8" as="geometry"/></mxCell><mxCell id="IL8PNfp2ytm6pg072xDF-29" value="ElementInfo" style="swimlane;fontStyle=1;align=center;verticalAlign=top;childLayout=stackLayout;horizontal=1;startSize=26;horizontalStack=0;resizeParent=1;resizeParentMax=0;resizeLast=0;collapsible=1;marginBottom=0;" parent="WIyWlLk6GJQsqaUBKTNV-1" vertex="1"><mxGeometry x="-275" y="1086" width="160" height="112" as="geometry"/></mxCell><mxCell id="erF2GCkGY189fPx6bUt2-30" value="+ ElementId : string;" style="text;strokeColor=none;fillColor=none;align=left;verticalAlign=top;spacingLeft=4;spacingRight=4;overflow=hidden;rotatable=0;points=[[0,0.5],[1,0.5]];portConstraint=eastwest;" parent="IL8PNfp2ytm6pg072xDF-29" vertex="1"><mxGeometry y="26" width="160" height="26" as="geometry"/></mxCell><mxCell id="IL8PNfp2ytm6pg072xDF-30" value="+ ElementClass: string" style="text;strokeColor=none;fillColor=none;align=left;verticalAlign=top;spacingLeft=4;spacingRight=4;overflow=hidden;rotatable=0;points=[[0,0.5],[1,0.5]];portConstraint=eastwest;" parent="IL8PNfp2ytm6pg072xDF-29" vertex="1"><mxGeometry y="52" width="160" height="26" as="geometry"/></mxCell><mxCell id="erF2GCkGY189fPx6bUt2-35" value="+ ParentClass: string" style="text;strokeColor=none;fillColor=none;align=left;verticalAlign=top;spacingLeft=4;spacingRight=4;overflow=hidden;rotatable=0;points=[[0,0.5],[1,0.5]];portConstraint=eastwest;" parent="IL8PNfp2ytm6pg072xDF-29" vertex="1"><mxGeometry y="78" width="160" height="26" as="geometry"/></mxCell><mxCell id="IL8PNfp2ytm6pg072xDF-31" value="" style="line;strokeWidth=1;fillColor=none;align=left;verticalAlign=middle;spacingTop=-1;spacingLeft=3;spacingRight=3;rotatable=0;labelPosition=right;points=[];portConstraint=eastwest;" parent="IL8PNfp2ytm6pg072xDF-29" vertex="1"><mxGeometry y="104" width="160" height="8" as="geometry"/></mxCell><mxCell id="IL8PNfp2ytm6pg072xDF-33" value="Notification" style="swimlane;fontStyle=1;align=center;verticalAlign=top;childLayout=stackLayout;horizontal=1;startSize=26;horizontalStack=0;resizeParent=1;resizeParentMax=0;resizeLast=0;collapsible=1;marginBottom=0;" parent="WIyWlLk6GJQsqaUBKTNV-1" vertex="1"><mxGeometry x="-508" y="-68" width="212" height="112" as="geometry"/></mxCell><mxCell id="IL8PNfp2ytm6pg072xDF-34" value="+ Id: int" style="text;strokeColor=none;fillColor=none;align=left;verticalAlign=top;spacingLeft=4;spacingRight=4;overflow=hidden;rotatable=0;points=[[0,0.5],[1,0.5]];portConstraint=eastwest;" parent="IL8PNfp2ytm6pg072xDF-33" vertex="1"><mxGeometry y="26" width="212" height="26" as="geometry"/></mxCell><mxCell id="erF2GCkGY189fPx6bUt2-37" value="+ DateGenerated: DateTime" style="text;strokeColor=none;fillColor=none;align=left;verticalAlign=top;spacingLeft=4;spacingRight=4;overflow=hidden;rotatable=0;points=[[0,0.5],[1,0.5]];portConstraint=eastwest;" parent="IL8PNfp2ytm6pg072xDF-33" vertex="1"><mxGeometry y="52" width="212" height="26" as="geometry"/></mxCell><mxCell id="23" value="+ NotificationMessage: DateTime" style="text;strokeColor=none;fillColor=none;align=left;verticalAlign=top;spacingLeft=4;spacingRight=4;overflow=hidden;rotatable=0;points=[[0,0.5],[1,0.5]];portConstraint=eastwest;" parent="IL8PNfp2ytm6pg072xDF-33" vertex="1"><mxGeometry y="78" width="212" height="26" as="geometry"/></mxCell><mxCell id="IL8PNfp2ytm6pg072xDF-35" value="" style="line;strokeWidth=1;fillColor=none;align=left;verticalAlign=middle;spacingTop=-1;spacingLeft=3;spacingRight=3;rotatable=0;labelPosition=right;points=[];portConstraint=eastwest;" parent="IL8PNfp2ytm6pg072xDF-33" vertex="1"><mxGeometry y="104" width="212" height="8" as="geometry"/></mxCell><mxCell id="erF2GCkGY189fPx6bUt2-7" value="has" style="endArrow=open;html=1;endSize=12;startArrow=diamondThin;startSize=14;startFill=0;edgeStyle=orthogonalEdgeStyle;rounded=0;exitX=1;exitY=0.5;exitDx=0;exitDy=0;entryX=0;entryY=0.5;entryDx=0;entryDy=0;" parent="WIyWlLk6GJQsqaUBKTNV-1" source="y_DVmvTGEF5yLgAuHi2X-3" target="zkfFHV4jXpPFQw0GAbJ--19" edge="1"><mxGeometry x="-0.0294" y="12" relative="1" as="geometry"><mxPoint x="-662" y="409.6" as="sourcePoint"/><mxPoint x="-502" y="409.6" as="targetPoint"/><mxPoint as="offset"/></mxGeometry></mxCell><mxCell id="erF2GCkGY189fPx6bUt2-8" value="1" style="edgeLabel;resizable=0;html=1;align=left;verticalAlign=top;" parent="erF2GCkGY189fPx6bUt2-7" connectable="0" vertex="1"><mxGeometry x="-1" relative="1" as="geometry"><mxPoint x="14" as="offset"/></mxGeometry></mxCell><mxCell id="erF2GCkGY189fPx6bUt2-9" value="0..n" style="edgeLabel;resizable=0;html=1;align=right;verticalAlign=top;" parent="erF2GCkGY189fPx6bUt2-7" connectable="0" vertex="1"><mxGeometry x="1" relative="1" as="geometry"><mxPoint x="-10" as="offset"/></mxGeometry></mxCell><mxCell id="erF2GCkGY189fPx6bUt2-10" value="generates" style="endArrow=open;html=1;endSize=12;startArrow=diamondThin;startSize=14;startFill=0;edgeStyle=orthogonalEdgeStyle;rounded=0;exitX=0.5;exitY=0;exitDx=0;exitDy=0;entryX=0.5;entryY=1;entryDx=0;entryDy=0;" parent="WIyWlLk6GJQsqaUBKTNV-1" source="zkfFHV4jXpPFQw0GAbJ--17" target="IL8PNfp2ytm6pg072xDF-33" edge="1"><mxGeometry x="0.0254" y="28" relative="1" as="geometry"><mxPoint x="-492" y="258" as="sourcePoint"/><mxPoint x="-334" y="258" as="targetPoint"/><mxPoint as="offset"/></mxGeometry></mxCell><mxCell id="erF2GCkGY189fPx6bUt2-11" value="1" style="edgeLabel;resizable=0;html=1;align=left;verticalAlign=top;" parent="erF2GCkGY189fPx6bUt2-10" connectable="0" vertex="1"><mxGeometry x="-1" relative="1" as="geometry"><mxPoint x="-20" y="-28" as="offset"/></mxGeometry></mxCell><mxCell id="erF2GCkGY189fPx6bUt2-12" value="0..n" style="edgeLabel;resizable=0;html=1;align=right;verticalAlign=top;" parent="erF2GCkGY189fPx6bUt2-10" connectable="0" vertex="1"><mxGeometry x="1" relative="1" as="geometry"><mxPoint x="-12" as="offset"/></mxGeometry></mxCell><mxCell id="erF2GCkGY189fPx6bUt2-24" value="has" style="endArrow=open;html=1;endSize=12;startArrow=diamondThin;startSize=14;startFill=1;edgeStyle=orthogonalEdgeStyle;rounded=0;entryX=0.5;entryY=0;entryDx=0;entryDy=0;exitX=0.5;exitY=1;exitDx=0;exitDy=0;" parent="WIyWlLk6GJQsqaUBKTNV-1" source="IL8PNfp2ytm6pg072xDF-5" target="IL8PNfp2ytm6pg072xDF-25" edge="1"><mxGeometry x="0.0811" y="20" relative="1" as="geometry"><mxPoint x="-402" y="985" as="sourcePoint"/><mxPoint x="-242" y="1005" as="targetPoint"/><Array as="points"/><mxPoint as="offset"/></mxGeometry></mxCell><mxCell id="erF2GCkGY189fPx6bUt2-25" value="1" style="edgeLabel;resizable=0;html=1;align=left;verticalAlign=top;" parent="erF2GCkGY189fPx6bUt2-24" connectable="0" vertex="1"><mxGeometry x="-1" relative="1" as="geometry"><mxPoint x="-22" y="-2" as="offset"/></mxGeometry></mxCell><mxCell id="erF2GCkGY189fPx6bUt2-26" value="0..n" style="edgeLabel;resizable=0;html=1;align=right;verticalAlign=top;" parent="erF2GCkGY189fPx6bUt2-24" connectable="0" vertex="1"><mxGeometry x="1" relative="1" as="geometry"><mxPoint x="-12" y="-24" as="offset"/></mxGeometry></mxCell><mxCell id="erF2GCkGY189fPx6bUt2-27" value="has" style="endArrow=open;html=1;endSize=12;startArrow=diamondThin;startSize=14;startFill=1;edgeStyle=orthogonalEdgeStyle;rounded=0;exitX=0.5;exitY=1;exitDx=0;exitDy=0;entryX=0.5;entryY=0;entryDx=0;entryDy=0;" parent="WIyWlLk6GJQsqaUBKTNV-1" source="IL8PNfp2ytm6pg072xDF-9" target="IL8PNfp2ytm6pg072xDF-29" edge="1"><mxGeometry x="0.0811" y="14" relative="1" as="geometry"><mxPoint x="-202" y="1005" as="sourcePoint"/><mxPoint x="-262" y="1045" as="targetPoint"/><mxPoint as="offset"/></mxGeometry></mxCell><mxCell id="erF2GCkGY189fPx6bUt2-28" value="1" style="edgeLabel;resizable=0;html=1;align=left;verticalAlign=top;" parent="erF2GCkGY189fPx6bUt2-27" connectable="0" vertex="1"><mxGeometry x="-1" relative="1" as="geometry"><mxPoint x="-23" as="offset"/></mxGeometry></mxCell><mxCell id="erF2GCkGY189fPx6bUt2-29" value="1" style="edgeLabel;resizable=0;html=1;align=right;verticalAlign=top;" parent="erF2GCkGY189fPx6bUt2-27" connectable="0" vertex="1"><mxGeometry x="1" relative="1" as="geometry"><mxPoint x="-14" y="-24" as="offset"/></mxGeometry></mxCell><mxCell id="6" value="Site" style="swimlane;fontStyle=0;childLayout=stackLayout;horizontal=1;startSize=26;fillColor=none;horizontalStack=0;resizeParent=1;resizeParentMax=0;resizeLast=0;collapsible=1;marginBottom=0;" parent="WIyWlLk6GJQsqaUBKTNV-1" vertex="1"><mxGeometry x="-184" y="276" width="140" height="104" as="geometry"/></mxCell><mxCell id="19" value="+ Uri: Uri" style="text;strokeColor=none;fillColor=none;align=left;verticalAlign=top;spacingLeft=4;spacingRight=4;overflow=hidden;rotatable=0;points=[[0,0.5],[1,0.5]];portConstraint=eastwest;" parent="6" vertex="1"><mxGeometry y="26" width="140" height="26" as="geometry"/></mxCell><mxCell id="7" value="+ Uri: Uri" style="text;strokeColor=none;fillColor=none;align=left;verticalAlign=top;spacingLeft=4;spacingRight=4;overflow=hidden;rotatable=0;points=[[0,0.5],[1,0.5]];portConstraint=eastwest;" parent="6" vertex="1"><mxGeometry y="52" width="140" height="26" as="geometry"/></mxCell><mxCell id="8" value="+ Name: string" style="text;strokeColor=none;fillColor=none;align=left;verticalAlign=top;spacingLeft=4;spacingRight=4;overflow=hidden;rotatable=0;points=[[0,0.5],[1,0.5]];portConstraint=eastwest;" parent="6" vertex="1"><mxGeometry y="78" width="140" height="26" as="geometry"/></mxCell><mxCell id="24" value="NotificationMessage" style="swimlane;fontStyle=1;align=center;verticalAlign=top;childLayout=stackLayout;horizontal=1;startSize=26;horizontalStack=0;resizeParent=1;resizeParentMax=0;resizeLast=0;collapsible=1;marginBottom=0;" parent="WIyWlLk6GJQsqaUBKTNV-1" vertex="1"><mxGeometry x="-508" y="-340" width="212" height="190" as="geometry"/></mxCell><mxCell id="25" value="+ Id: int" style="text;strokeColor=none;fillColor=none;align=left;verticalAlign=top;spacingLeft=4;spacingRight=4;overflow=hidden;rotatable=0;points=[[0,0.5],[1,0.5]];portConstraint=eastwest;" parent="24" vertex="1"><mxGeometry y="26" width="212" height="26" as="geometry"/></mxCell><mxCell id="26" value="+ DateSent: DateTime" style="text;strokeColor=none;fillColor=none;align=left;verticalAlign=top;spacingLeft=4;spacingRight=4;overflow=hidden;rotatable=0;points=[[0,0.5],[1,0.5]];portConstraint=eastwest;" parent="24" vertex="1"><mxGeometry y="52" width="212" height="26" as="geometry"/></mxCell><mxCell id="54" value="+ ErrorMessage: string" style="text;strokeColor=none;fillColor=none;align=left;verticalAlign=top;spacingLeft=4;spacingRight=4;overflow=hidden;rotatable=0;points=[[0,0.5],[1,0.5]];portConstraint=eastwest;" parent="24" vertex="1"><mxGeometry y="78" width="212" height="26" as="geometry"/></mxCell><mxCell id="55" value="+ AlertId: int" style="text;strokeColor=none;fillColor=none;align=left;verticalAlign=top;spacingLeft=4;spacingRight=4;overflow=hidden;rotatable=0;points=[[0,0.5],[1,0.5]];portConstraint=eastwest;" parent="24" vertex="1"><mxGeometry y="104" width="212" height="26" as="geometry"/></mxCell><mxCell id="56" value="+ UserId: guid" style="text;strokeColor=none;fillColor=none;align=left;verticalAlign=top;spacingLeft=4;spacingRight=4;overflow=hidden;rotatable=0;points=[[0,0.5],[1,0.5]];portConstraint=eastwest;" parent="24" vertex="1"><mxGeometry y="130" width="212" height="26" as="geometry"/></mxCell><mxCell id="57" value="+ ReceiverId: guid" style="text;strokeColor=none;fillColor=none;align=left;verticalAlign=top;spacingLeft=4;spacingRight=4;overflow=hidden;rotatable=0;points=[[0,0.5],[1,0.5]];portConstraint=eastwest;" parent="24" vertex="1"><mxGeometry y="156" width="212" height="26" as="geometry"/></mxCell><mxCell id="28" value="" style="line;strokeWidth=1;fillColor=none;align=left;verticalAlign=middle;spacingTop=-1;spacingLeft=3;spacingRight=3;rotatable=0;labelPosition=right;points=[];portConstraint=eastwest;" parent="24" vertex="1"><mxGeometry y="182" width="212" height="8" as="geometry"/></mxCell><mxCell id="48" value="has" style="endArrow=open;html=1;endSize=12;startArrow=diamondThin;startSize=14;startFill=1;edgeStyle=orthogonalEdgeStyle;rounded=0;exitX=0.5;exitY=0;exitDx=0;exitDy=0;entryX=0.5;entryY=1;entryDx=0;entryDy=0;" parent="WIyWlLk6GJQsqaUBKTNV-1" source="IL8PNfp2ytm6pg072xDF-33" target="24" edge="1"><mxGeometry x="-0.0294" y="12" relative="1" as="geometry"><mxPoint x="-310" y="-98" as="sourcePoint"/><mxPoint x="-163.01999999999998" y="-98.0039999999999" as="targetPoint"/><mxPoint as="offset"/><Array as="points"/></mxGeometry></mxCell><mxCell id="49" value="1" style="edgeLabel;resizable=0;html=1;align=left;verticalAlign=top;" parent="48" connectable="0" vertex="1"><mxGeometry x="-1" relative="1" as="geometry"><mxPoint x="-18" y="-32" as="offset"/></mxGeometry></mxCell><mxCell id="50" value="1 .. n" style="edgeLabel;resizable=0;html=1;align=right;verticalAlign=top;" parent="48" connectable="0" vertex="1"><mxGeometry x="1" relative="1" as="geometry"><mxPoint x="-12" y="3" as="offset"/></mxGeometry></mxCell><mxCell id="15" value="has" style="endArrow=open;html=1;endSize=12;startArrow=diamondThin;startSize=14;startFill=1;edgeStyle=orthogonalEdgeStyle;rounded=0;entryX=-0.003;entryY=0.862;entryDx=0;entryDy=0;entryPerimeter=0;exitX=1;exitY=0.5;exitDx=0;exitDy=0;" parent="WIyWlLk6GJQsqaUBKTNV-1" source="y_DVmvTGEF5yLgAuHi2X-29" target="19" edge="1"><mxGeometry x="-0.0294" y="12" relative="1" as="geometry"><mxPoint x="-300" y="314" as="sourcePoint"/><mxPoint x="-220" y="314" as="targetPoint"/><mxPoint as="offset"/></mxGeometry></mxCell><mxCell id="16" value="1" style="edgeLabel;resizable=0;html=1;align=left;verticalAlign=top;" parent="15" connectable="0" vertex="1"><mxGeometry x="-1" relative="1" as="geometry"><mxPoint x="14" as="offset"/></mxGeometry></mxCell><mxCell id="17" value="1" style="edgeLabel;resizable=0;html=1;align=right;verticalAlign=top;" parent="15" connectable="0" vertex="1"><mxGeometry x="1" relative="1" as="geometry"><mxPoint x="-4" y="3" as="offset"/></mxGeometry></mxCell><mxCell id="51" value="has" style="endArrow=open;html=1;endSize=12;startArrow=diamondThin;startSize=14;startFill=0;edgeStyle=orthogonalEdgeStyle;rounded=0;exitX=1.025;exitY=0.923;exitDx=0;exitDy=0;exitPerimeter=0;entryX=0.006;entryY=0.769;entryDx=0;entryDy=0;entryPerimeter=0;" parent="WIyWlLk6GJQsqaUBKTNV-1" source="3" target="y_DVmvTGEF5yLgAuHi2X-22" edge="1"><mxGeometry x="-0.0577" y="11" relative="1" as="geometry"><mxPoint x="-312" y="349" as="sourcePoint"/><mxPoint x="-210" y="448" as="targetPoint"/><mxPoint x="-11" y="-11" as="offset"/></mxGeometry></mxCell><mxCell id="52" value="1" style="edgeLabel;resizable=0;html=1;align=left;verticalAlign=top;" parent="51" connectable="0" vertex="1"><mxGeometry x="-1" relative="1" as="geometry"><mxPoint x="14" as="offset"/></mxGeometry></mxCell><mxCell id="53" value="0 .. n" style="edgeLabel;resizable=0;html=1;align=right;verticalAlign=top;" parent="51" connectable="0" vertex="1"><mxGeometry x="1" relative="1" as="geometry"><mxPoint x="-4" y="3" as="offset"/></mxGeometry></mxCell></root></mxGraphModel></diagram></mxfile>